Coordinates
version=1
nRows=8
nColumns=36
inDegrees=yes

Units are S.I. units (second, meters, Newtons, ...)
If the header above contains a line with 'inDegrees', this indicates whether rotational values are in degrees (yes) or radians (no).

endheader
time	pelvis_tilt	pelvis_list	pelvis_rotation	pelvis_tx	pelvis_ty	pelvis_tz	hip_flexion_r	hip_adduction_r	hip_rotation_r	knee_angle_r	knee_angle_r_beta	ankle_angle_r	subtalar_angle_r	mtp_angle_r	hip_flexion_l	hip_adduction_l	hip_rotation_l	knee_angle_l	knee_angle_l_beta	ankle_angle_l	subtalar_angle_l	mtp_angle_l	lumbar_extension	lumbar_bending	lumbar_rotation	arm_flex_r	arm_add_r	arm_rot_r	elbow_flex_r	pro_sup_r	arm_flex_l	arm_add_l	arm_rot_l	elbow_flex_l	pro_sup_l
      8.88000000	    -38.97798015	     -0.40230961	     -3.14025131	     -0.32029262	      0.64443292	     -0.62425004	     94.98785929	    -12.26948856	     -2.36268892	     88.44862371	      1.54371970	     33.41602855	     -7.81535037	     -7.49999987	     97.69020046	    -18.27282142	      1.53196801	     88.38823206	      1.54266567	     31.30393173	     -2.84481816	     -7.49999987	     -7.14461091	      1.52559731	     -1.04252784	     55.85820912	    -26.92356461	     41.76459242	    136.65535282	    111.69211565	     54.26757692	    -26.31561846	     46.16652397	    133.12550831	    110.54042049
      8.89000000	    -39.35148794	     -0.32620678	     -3.10340971	     -0.31897739	      0.65013184	     -0.62429358	     94.54255511	    -12.12216092	     -2.41120177	     87.22499619	      1.52236337	     32.87660600	     -8.25773472	     -7.49999987	     97.13003412	    -18.03095199	      1.28249433	     87.15209914	      1.52109108	     30.76334261	     -3.36607762	     -7.49999987	     -6.22188928	      1.49501230	     -1.08806921	     54.07242219	    -26.82167802	     40.89325005	    136.89874658	    111.61977017	     51.94724518	    -25.99329204	     44.69732833	    133.56741643	    110.49848544
      8.90000000	    -39.28044565	     -0.35526712	     -3.07437121	     -0.31740981	      0.65667614	     -0.62426725	     93.55486346	    -11.91579034	     -2.35138550	     86.04348508	      1.50174211	     32.66604740	     -8.18063100	     -7.49999987	     96.10346558	    -17.84645112	      1.13311963	     85.92221709	      1.49962559	     30.54443153	     -3.34278322	     -7.49999987	     -5.82144852	      1.53767070	     -1.06810528	     52.86808583	    -27.12918158	     41.05190689	    136.90433784	    111.62220169	     50.37897217	    -26.04534460	     44.90911111	    133.68622592	    110.52791912
      8.91000000	    -39.53434339	     -0.19401512	     -3.09484579	     -0.31582553	      0.66315944	     -0.62401825	     92.94318193	    -11.65718198	     -2.09571006	     84.78151178	      1.47971653	     32.11115343	     -8.16503598	     -7.49999987	     95.28074917	    -17.72972298	      0.70898898	     84.54273781	      1.47554913	     29.89051553	     -3.83281061	     -7.49999987	     -4.98155999	      1.34791044	     -0.98900546	     50.89743259	    -27.04410896	     40.14052608	    136.99165126	    111.51766336	     48.07309714	    -25.59038656	     43.32647154	    133.83648327	    110.39323971
      8.92000000	    -39.53507584	     -0.21205666	     -3.05223500	     -0.31405311	      0.67029599	     -0.62401688	     91.91552079	    -11.50356069	     -2.13972089	     83.38639471	      1.45536714	     31.83570603	     -8.07509251	     -7.49999987	     94.20713597	    -17.54424339	      0.45486000	     83.10945597	      1.45053365	     29.54961209	     -3.94036555	     -7.49999987	     -4.46784893	      1.37190508	     -0.97797740	     49.43295382	    -27.19962573	     40.15897154	    136.94072304	    111.49101929	     46.35063796	    -25.43986903	     43.20634787	    133.87962334	    110.37521244
      8.93000000	    -39.64169341	     -0.19303063	     -2.96678149	     -0.31221874	      0.67745299	     -0.62410869	     90.98218374	    -11.37754223	     -2.19576656	     81.91795697	      1.42973807	     31.30111768	     -8.29014407	     -7.49999987	     93.23571991	    -17.26343235	      0.21514542	     81.62108467	      1.42455667	     28.86143057	     -4.44620296	     -7.49999987	     -3.72611041	      1.38524256	     -0.97806427	     47.61896932	    -27.34546098	     39.44936138	    136.84789552	    111.38619461	     44.01586566	    -25.17089449	     42.00232234	    133.72911890	    110.22539741
      8.94000000	    -39.63496580	     -0.21617869	     -2.90041463	     -0.31020457	      0.68512898	     -0.62407085	     89.86202769	    -11.26245856	     -2.46685940	     80.30787109	      1.40163677	     30.62597070	     -8.79589191	     -7.49999987	     92.08373329	    -17.04628899	     -0.04446132	     80.04925399	      1.39712305	     28.11237039	     -4.97564008	     -7.49999987	     -3.12956547	      1.44009907	     -1.00152429	     45.89358992	    -27.47408468	     39.01333026	    136.64638857	    111.29154734	     41.84261713	    -25.00734764	     41.11544689	    133.53519544	    110.07439912
      8.95000000	    -39.56488860	     -0.26340016	     -2.86435855	     -0.30808944	      0.69312715	     -0.62396665	     88.62188719	    -11.08122900	     -2.74132081	     78.59864071	      1.37180507	     29.56701999	     -9.74645447	     -7.49999987	     90.84679276	    -16.87432398	     -0.30688260	     78.40474727	      1.36842099	     27.21754560	     -5.67243067	     -7.49999987	     -2.61579398	      1.49582593	     -1.04859868	     44.19681318	    -27.55692935	     38.74733219	    136.41913542	    111.18086993	     39.75189960	    -24.84164691	     40.43322301	    133.35922083	    109.83824099
